<?xml version="1.0" encoding="utf-8"?>
<!-- Generator: Adobe Illustrator 25.0.0, SVG Export Plug-In . SVG Version: 6.00 Build 0)  -->
<svg version="1.1" id="Layer_1" xmlns="http://www.w3.org/2000/svg" xmlns:xlink="http://www.w3.org/1999/xlink" x="0px" y="0px"
	 viewBox="0 0 1156.5 697.5" style="enable-background:new 0 0 1156.5 697.5;" xml:space="preserve">
<style type="text/css">
	.st0{fill-rule:evenodd;clip-rule:evenodd;fill:#F15A2B;stroke:#F15A2B;stroke-width:15;}
	.st1{opacity:0.121;fill-rule:evenodd;clip-rule:evenodd;fill:#FFFFFF;enable-background:new    ;}
</style>
<path class="st0" d="M1149,553.7c0,0-19,12.4-52.9,29.6c-97.7,49.8-319.3,140.2-568.4,93.2c-7.9-1.5-15.8-3.1-23.8-4.9
	c-48-10.7-92.2-29.7-132.6-54.6C266.2,552.5,186,448.6,128.3,349.7c-27.6-47.2-50-93.3-67.5-133.5C27.3,139.8,11.5,84.9,11.5,84.9
	l763-49.7L1136,11.7l3.6,150.2l5.4,224.1L1149,553.7z"/>
<path class="st1" d="M543,412.3L651.4,494c-35.7,72.5-75.1,142.5-124.9,190.2c-7.9-1.5-15.8-3.1-23.8-4.9
	c-48-10.7-97.9-32.9-138.4-57.7C457.9,572.4,543,412.3,543,412.3z"/>
<path class="st1" d="M739.3,305.7l-110.5-79.9C658.6,164.4,706,86,772.8,28l370.5-24.3l3.6,151.9c-46-59.3-133.2-92.7-206.8-64.3
	C806.3,142.7,739.3,305.7,739.3,305.7z"/>
<path class="st1" d="M1156.5,554.8c0,0-26.5,11.3-60.4,28.5c-9.7,3.4-19.7,6.4-29.9,8.9c-48.9,12.2-97.9,12.8-144.1,3.7
	c-188.9-38.7-376.9-243-485-288.5c-74.3-29.9-112.7-54.4-200-31.4c-47.9,12.6-90.9,44-114.6,78.6C95,307.5,72.1,260.8,54.5,220.6
	c40-38.1,96.6-71.1,154.2-85.5c69-17.2,138.3-11.4,199.6,12.5c233.1,100.2,351.4,240.7,451.5,275.5c22,13.4,109.2,54.7,172.6,38.9
	c47.4-11.8,94-40.4,120-76.8L1156.5,554.8z"/>
</svg>
