<svg xmlns="http://www.w3.org/2000/svg" xmlns:xlink="http://www.w3.org/1999/xlink" width="611.446" height="510.211" viewBox="0 0 611.446 510.211">
  <defs>
    <clipPath id="clip-path">
      <path id="Clip_19" data-name="Clip 19" d="M408,31.335l-.215,9.374c-61.952-64.123-114.7-23.5-180.395,28.269C209.989,82.69,195,88,181.591,88c-23.471,0-42.086-16.266-60.311-32.189-13.819-12.073-28.156-24.418-44.7-30.506C26.07,6.723.231,40.654,0,40.953V30.631c.273-.353,4.882-6.521,18.216-12.409,12.14-5.361,32.509-9.638,60.6.432,17.8,6.38,32.582,19.3,46.878,31.786,29,25.337,54.045,47.219,97.541,12.944,32.943-25.959,64-50.7,94.553-59.735" transform="translate(0.008 0.052)" fill="none"/>
    </clipPath>
    <linearGradient id="linear-gradient" y1="0.5" x2="1" y2="0.5" gradientUnits="objectBoundingBox">
      <stop offset="0" stop-color="#3fd4e6"/>
      <stop offset="1" stop-color="#5477ff"/>
    </linearGradient>
    <clipPath id="clip-path-2">
      <path id="Clip_19-2" data-name="Clip 19" d="M338-31.335l-.178-9.374C286.5,23.414,242.8-17.211,188.377-68.978,173.962-82.69,161.541-88,150.435-88c-19.444,0-34.865,16.266-49.963,32.189C89.024-43.738,77.147-31.394,63.438-25.305,21.6-6.723.191-40.654,0-40.953v10.322c.226.353,4.044,6.521,15.091,12.409,10.057,5.361,26.931,9.638,50.206-.432,14.746-6.38,26.992-19.3,38.835-31.786,24.025-25.337,44.773-47.219,80.806-12.944,27.291,25.959,53.018,50.7,78.331,59.735" transform="translate(-0.004 -0.559)" fill="none"/>
    </clipPath>
    <linearGradient id="linear-gradient-2" y1="0.5" x2="1" y2="0.5" gradientUnits="objectBoundingBox">
      <stop offset="0.002" stop-color="#f15a29"/>
      <stop offset="1" stop-color="#ff0973"/>
    </linearGradient>
    <clipPath id="clip-path-3">
      <path id="Clip_23" data-name="Clip 23" d="M1.55,95.821,0,94,25.721,72.1H41.342L76.785,41.931l22.17,18.875H115.3l8.263,7.036,25.67-21.855h13.03L216.283,0l1.55,1.819-54.688,46.56h-13.03l-26.55,22.6L114.422,63.2H98.075L76.785,45.069,42.223,74.494H26.6Z" transform="matrix(1, -0.017, 0.017, 1, 0.737, 4.987)" fill="none"/>
    </clipPath>
    <linearGradient id="linear-gradient-3" y1="0.5" x2="1" y2="0.5" gradientUnits="objectBoundingBox">
      <stop offset="0" stop-color="#8ed6ff"/>
      <stop offset="1" stop-color="#bfebfd"/>
    </linearGradient>
    <clipPath id="clip-path-4">
      <path id="Clip_26" data-name="Clip 26" d="M8.905,89.888H0V87.534H7.913L21.285,74.39l9.724,9.559L54.234,61.118l7.145,7.024L84.926,44.995,99.04,58.869l16.09,0,24.831-24.41,21.418,0L177.21,18.9l19.381,0L215.82,0l1.693,1.665-19.93,19.591-19.381,0L162.371,36.817l-21.418,0-24.831,24.41-18.074,0-13.122-12.9L61.38,71.472l-7.145-7.024L31.009,87.278l-9.724-9.559Z" transform="matrix(1, -0.017, 0.017, 1, 1.047, 4.917)" fill="none"/>
    </clipPath>
    <clipPath id="clip-path-5">
      <path id="Clip_29" data-name="Clip 29" d="M196.4,392.844h0A196.392,196.392,0,0,1,124.446,13.691l.04-.016.05-.019A195.621,195.621,0,0,1,172.153,1.479l.035.01a.227.227,0,0,1,.033-.005l.031,0A196.61,196.61,0,0,1,276.294,17.1h.005A195.137,195.137,0,0,1,345.031,68.3a197.38,197.38,0,0,1,39.984,74.163c.008.025.014.049.021.074l.009.031a195.371,195.371,0,0,1,.756,104.863,195.524,195.524,0,0,1-50.394,87.541L344.785,348,305.939,376l-8.244-11.456A196.018,196.018,0,0,1,196.4,392.844Zm-.079-330.15a132.964,132.964,0,0,0-45.017,7.866c-1.224.438-2.479.91-3.835,1.442a133.577,133.577,0,0,0,48.855,257.85h.007a133.065,133.065,0,0,0,45.024-7.865c65.972-23.661,102.573-94.957,83.325-162.314-.8-2.792-1.716-5.637-2.723-8.455A133.59,133.59,0,0,0,196.324,62.694Z" transform="translate(0.149 0.095)" fill="none"/>
    </clipPath>
    <linearGradient id="linear-gradient-5" x1="0.622" y1="0.154" x2="0.407" y2="0.764" gradientUnits="objectBoundingBox">
      <stop offset="0" stop-color="#c6cacf"/>
      <stop offset="1" stop-color="#f7f0fd"/>
    </linearGradient>
    <clipPath id="clip-path-6">
      <path id="Clip_42" data-name="Clip 42" d="M0,0H17.873V14.075H0Z" transform="translate(0.02 0.233)" fill="none"/>
    </clipPath>
    <clipPath id="clip-path-7">
      <path id="Clip_79" data-name="Clip 79" d="M0,499.767H602.816V0H0Z" transform="translate(0 0.233)" fill="none"/>
    </clipPath>
  </defs>
  <g id="Group_191" data-name="Group 191" transform="matrix(1, -0.017, 0.017, 1, -0.004, 10.287)">
    <path id="Fill_1" data-name="Fill 1" d="M0,155H2V0H0Z" transform="translate(222 242)" fill="#e0e0e0"/>
    <path id="Fill_2" data-name="Fill 2" d="M0,155H2V0H0Z" transform="translate(326 242)" fill="#e0e0e0"/>
    <path id="Fill_3" data-name="Fill 3" d="M0,155H2V0H0Z" transform="translate(431 242)" fill="#e0e0e0"/>
    <path id="Fill_6" data-name="Fill 6" d="M0,4H29V0H0Z" transform="translate(222 222)" fill="#d9d9d9"/>
    <path id="Fill_7" data-name="Fill 7" d="M0,4H19V0H0Z" transform="translate(222 230)" fill="#d9d9d9"/>
    <path id="Fill_8" data-name="Fill 8" d="M0,4H18V0H0Z" transform="translate(328 222)" fill="#d9d9d9"/>
    <path id="Fill_9" data-name="Fill 9" d="M0,4H21V0H0Z" transform="translate(328 230)" fill="#d9d9d9"/>
    <path id="Fill_10" data-name="Fill 10" d="M0,4H26V0H0Z" transform="translate(433 222)" fill="#d9d9d9"/>
    <path id="Fill_11" data-name="Fill 11" d="M0,4H21V0H0Z" transform="translate(433 230)" fill="#d9d9d9"/>
    <path id="Fill_12" data-name="Fill 12" d="M0,5H16V0H0Z" transform="translate(328 405)" fill="#b8b8b8"/>
    <path id="Fill_13" data-name="Fill 13" d="M0,5H16V0H0Z" transform="translate(433 405)" fill="#b8b8b8"/>
    <path id="Fill_14" data-name="Fill 14" d="M0,5H16V0H0Z" transform="translate(537 405)" fill="#b8b8b8"/>
    <g id="Group_21" data-name="Group 21" transform="translate(157 260)">
      <g id="Group_20" data-name="Group 20" transform="translate(0.058 -0.005)">
        <path id="Clip_19-3" data-name="Clip 19" d="M408,31.335l-.215,9.374c-61.952-64.123-114.7-23.5-180.395,28.269C209.989,82.69,195,88,181.591,88c-23.471,0-42.086-16.266-60.311-32.189-13.819-12.073-28.156-24.418-44.7-30.506C26.07,6.723.231,40.654,0,40.953V30.631c.273-.353,4.882-6.521,18.216-12.409,12.14-5.361,32.509-9.638,60.6.432,17.8,6.38,32.582,19.3,46.878,31.786,29,25.337,54.045,47.219,97.541,12.944,32.943-25.959,64-50.7,94.553-59.735" transform="translate(0.008 0.052)" fill="none"/>
        <g id="Group_20-2" data-name="Group 20" clip-path="url(#clip-path)">
          <path id="Fill_18" data-name="Fill 18" d="M181.591,88c-23.471,0-42.086-16.266-60.311-32.189-13.819-12.073-28.156-24.418-44.7-30.506C26.07,6.723.231,40.654,0,40.953V30.631c.273-.353,4.882-6.521,18.216-12.409,12.14-5.361,32.509-9.638,60.6.432,17.8,6.38,32.582,19.3,46.878,31.786,29,25.337,54.045,47.219,97.541,12.944,32.943-25.959,64-50.7,94.553-59.735C347.678-5.191,378.835,1.28,408,31.335l-.215,9.374c-61.952-64.123-114.7-23.5-180.395,28.269C209.989,82.69,195,88,181.591,88" transform="translate(0.008 0.052)" fill="url(#linear-gradient)"/>
        </g>
      </g>
      <g id="Group_20_Copy" data-name="Group 20 Copy" transform="translate(0.058 88.995)">
        <path id="Clip_19-4" data-name="Clip 19" d="M338-31.335l-.178-9.374C286.5,23.414,242.8-17.211,188.377-68.978,173.962-82.69,161.541-88,150.435-88c-19.444,0-34.865,16.266-49.963,32.189C89.024-43.738,77.147-31.394,63.438-25.305,21.6-6.723.191-40.654,0-40.953v10.322c.226.353,4.044,6.521,15.091,12.409,10.057,5.361,26.931,9.638,50.206-.432,14.746-6.38,26.992-19.3,38.835-31.786,24.025-25.337,44.773-47.219,80.806-12.944,27.291,25.959,53.018,50.7,78.331,59.735" transform="translate(-0.004 -0.559)" fill="none"/>
        <g id="Group_20_Copy-2" data-name="Group 20 Copy" clip-path="url(#clip-path-2)">
          <path id="Fill_18-2" data-name="Fill 18" d="M150.435-88c-19.444,0-34.865,16.266-49.963,32.189C89.024-43.738,77.147-31.394,63.438-25.305,21.6-6.723.191-40.654,0-40.953v10.322c.226.353,4.044,6.521,15.091,12.409,10.057,5.361,26.931,9.638,50.206-.432,14.746-6.38,26.992-19.3,38.835-31.786,24.025-25.337,44.773-47.219,80.806-12.944,27.291,25.959,53.018,50.7,78.331,59.735C288.028,5.191,313.839-1.28,338-31.335l-.178-9.374C286.5,23.414,242.8-17.211,188.377-68.978,173.962-82.69,161.541-88,150.435-88" transform="translate(-0.004 -0.559)" fill="url(#linear-gradient-2)"/>
        </g>
      </g>
    </g>
    <g id="Group_24" data-name="Group 24" transform="matrix(1, 0.017, -0.017, 1, 205.074, 140.838)">
      <path id="Clip_23-2" data-name="Clip 23" d="M1.55,95.821,0,94,25.721,72.1H41.342L76.785,41.931l22.17,18.875H115.3l8.263,7.036,25.67-21.855h13.03L216.283,0l1.55,1.819-54.688,46.56h-13.03l-26.55,22.6L114.422,63.2H98.075L76.785,45.069,42.223,74.494H26.6Z" transform="matrix(1, -0.017, 0.017, 1, 0.737, 4.987)" fill="none"/>
      <g id="Group_24-2" data-name="Group 24" clip-path="url(#clip-path-3)">
        <path id="Fill_22" data-name="Fill 22" d="M1.55,95.821,0,94,25.721,72.1H41.342L76.785,41.931l22.17,18.875H115.3l8.263,7.036,25.67-21.855h13.03L216.283,0l1.55,1.819-54.688,46.56h-13.03l-26.55,22.6L114.422,63.2H98.075L76.785,45.069,42.223,74.494H26.6Z" transform="matrix(1, -0.017, 0.017, 1, 0.737, 4.987)" fill="url(#linear-gradient-3)"/>
      </g>
    </g>
    <g id="Group_27" data-name="Group 27" transform="matrix(1, 0.017, -0.017, 1, 200.511, 115.755)">
      <path id="Clip_26-2" data-name="Clip 26" d="M8.905,89.888H0V87.534H7.913L21.285,74.39l9.724,9.559L54.234,61.118l7.145,7.024L84.926,44.995,99.04,58.869l16.09,0,24.831-24.41,21.418,0L177.21,18.9l19.381,0L215.82,0l1.693,1.665-19.93,19.591-19.381,0L162.371,36.817l-21.418,0-24.831,24.41-18.074,0-13.122-12.9L61.38,71.472l-7.145-7.024L31.009,87.278l-9.724-9.559Z" transform="matrix(1, -0.017, 0.017, 1, 1.047, 4.917)" fill="none"/>
      <g id="Group_27-2" data-name="Group 27" clip-path="url(#clip-path-4)">
        <path id="Fill_25" data-name="Fill 25" d="M8.905,89.888H0V87.534H7.913L21.285,74.39l9.724,9.559L54.234,61.118l7.145,7.024L84.926,44.995,99.04,58.869l16.09,0,24.831-24.41,21.418,0L177.21,18.9l19.381,0L215.82,0l1.693,1.665-19.93,19.591-19.381,0L162.371,36.817l-21.418,0-24.831,24.41-18.074,0-13.122-12.9L61.38,71.472l-7.145-7.024L31.009,87.278l-9.724-9.559Z" transform="matrix(1, -0.017, 0.017, 1, 1.047, 4.917)" fill="url(#linear-gradient-3)"/>
      </g>
    </g>
    <g id="Group_30" data-name="Group 30" transform="translate(136 45)">
      <path id="Clip_29-2" data-name="Clip 29" d="M196.4,392.844h0A196.392,196.392,0,0,1,124.446,13.691l.04-.016.05-.019A195.621,195.621,0,0,1,172.153,1.479l.035.01a.227.227,0,0,1,.033-.005l.031,0A196.61,196.61,0,0,1,276.294,17.1h.005A195.137,195.137,0,0,1,345.031,68.3a197.38,197.38,0,0,1,39.984,74.163c.008.025.014.049.021.074l.009.031a195.371,195.371,0,0,1,.756,104.863,195.524,195.524,0,0,1-50.394,87.541L344.785,348,305.939,376l-8.244-11.456A196.018,196.018,0,0,1,196.4,392.844Zm-.079-330.15a132.964,132.964,0,0,0-45.017,7.866c-1.224.438-2.479.91-3.835,1.442a133.577,133.577,0,0,0,48.855,257.85h.007a133.065,133.065,0,0,0,45.024-7.865c65.972-23.661,102.573-94.957,83.325-162.314-.8-2.792-1.716-5.637-2.723-8.455A133.59,133.59,0,0,0,196.324,62.694Z" transform="translate(0.149 0.095)" fill="none"/>
      <g id="Group_30-2" data-name="Group 30" clip-path="url(#clip-path-5)">
        <path id="Fill_28" data-name="Fill 28" d="M196.4,392.844h0A196.392,196.392,0,0,1,124.446,13.691l.04-.016.05-.019A195.621,195.621,0,0,1,172.153,1.479l.035.01a.227.227,0,0,1,.033-.005l.031,0A196.61,196.61,0,0,1,276.294,17.1h.005A195.137,195.137,0,0,1,345.031,68.3a197.38,197.38,0,0,1,39.984,74.163c.008.025.014.049.021.074l.009.031a195.371,195.371,0,0,1,.756,104.863,195.524,195.524,0,0,1-50.394,87.541L344.785,348,305.939,376l-8.244-11.456A196.018,196.018,0,0,1,196.4,392.844Zm-.079-330.15a132.964,132.964,0,0,0-45.017,7.866c-1.224.438-2.479.91-3.835,1.442a133.577,133.577,0,0,0,48.855,257.85h.007a133.065,133.065,0,0,0,45.024-7.865c65.972-23.661,102.573-94.957,83.325-162.314-.8-2.792-1.716-5.637-2.723-8.455A133.59,133.59,0,0,0,196.324,62.694Z" transform="translate(0.149 0.095)" fill="url(#linear-gradient-5)"/>
      </g>
    </g>
    <g id="Group_37" data-name="Group 37" transform="translate(253 26)">
      <path id="Fill_31" data-name="Fill 31" d="M173.3,150.725l-38.761,11L74.083,178.885q-1.217-4.231-2.728-8.432A133,133,0,0,0,0,93.78L25.6,36.691H25.6l2.692-6.008L42.051,0A236.34,236.34,0,0,1,173.3,150.725" transform="translate(133.456 0.077)" fill="#f15a29"/>
      <path id="Fill_33" data-name="Fill 33" d="M107.758,17.607l-2.692,6.008L79.463,80.7a133.928,133.928,0,0,0-70.948-10.6L.806,8.041,0,1.532A203.243,203.243,0,0,1,77.712,6.989a201.144,201.144,0,0,1,30.046,10.618" transform="translate(53.992 13.153)" fill="#fa2475"/>
      <path id="Fill_35" data-name="Fill 35" d="M62.482,80.882a134.586,134.586,0,0,0-28.7,6.83q-1.941.692-3.842,1.438L6.958,30.961,0,13.349A215.265,215.265,0,0,1,52.4,0l.04.01,1.528,12.3.806,6.509Z" transform="translate(0.026 2.376)" fill="#514ad3"/>
    </g>
    <g id="Group_120" data-name="Group 120">
      <g id="Group_43" data-name="Group 43" transform="translate(279.718)">
        <path id="Clip_42-2" data-name="Clip 42" d="M0,0H17.873V14.075H0Z" transform="translate(0.02 0.233)" fill="none"/>
        <g id="Group_43-2" data-name="Group 43" clip-path="url(#clip-path-6)">
          <path id="Fill_41" data-name="Fill 41" d="M10.574,13.9A59.336,59.336,0,0,0,6.2,6.926C4.617,5.081-.649,3.7.066,1.34S7.839.008,9.782,2.313s7.874,3.126,8.079,4.1-2.06,6.3-3.331,7.174-3.956.31-3.956.31" transform="translate(0.02 0.233)" fill="#6a75ba"/>
        </g>
      </g>
      <path id="Fill_44" data-name="Fill 44" d="M14.577,10.776A56.955,56.955,0,0,0,7.852,6.107C5.666,5.044.285,5.87.008,3.422S6.613-.894,9.31.449,17.775.184,18.348,1s.607,6.6-.214,7.91-3.558,1.869-3.558,1.869" transform="translate(263.891 7.696)" fill="#545d94"/>
      <path id="Fill_46" data-name="Fill 46" d="M0,16.3S1.985,2.718,1.9.362c-.026-.673,4.078-.423,3.886.871C5.364,4.051,7.257,14.967,6.928,16.966S-.166,17.558,0,16.3" transform="translate(288.545 11.563)" fill="#eea886"/>
      <path id="Fill_48" data-name="Fill 48" d="M4.606,16.924S.893,3.737.027,1.544C-.358.568,3.426-.944,3.939.8c.805,2.732,6.8,12.017,7.286,13.982s-6.276,3.367-6.619,2.145" transform="translate(277.734 14.842)" fill="#eea886"/>
      <path id="Fill_50" data-name="Fill 50" d="M4.6,18.807S.613,5.329,0,3.895L6.289,0S9.2,8.609,9.612,10.762,4.6,18.807,4.6,18.807" transform="translate(280.316 22.123)" fill="#d9d3c8"/>
      <path id="Fill_52" data-name="Fill 52" d="M24.981,0s-6.073,1.539-8.963,6.142-5.387,9.9-10.816,12.31A8.952,8.952,0,0,0,.16,28.01c.423.956,17.1,19.748,20.742,20.474s10.453.222,9.725-4.607-7.87-15.216-3.862-20.456a27.8,27.8,0,0,0,5.018-10.067Z" transform="translate(371.26 5.321)" fill="#222538"/>
      <path id="Fill_54" data-name="Fill 54" d="M8.031,9.94a2.339,2.339,0,0,0-.475-.086,3.442,3.442,0,0,0-1.42.17,3.235,3.235,0,0,0-.556.277c-1.443.852-4.858,3.166-5.32,3.221C-.273,13.586.178,5.6.178,5.6A18.7,18.7,0,0,0,2.225.255C2.453-1.867,8.031,9.94,8.031,9.94" transform="translate(387.151 17.854)" fill="#eea886"/>
      <path id="Fill_56" data-name="Fill 56" d="M69.184,11.607s-6.673-4.689-14.5-3.228S46.022,13.5,43.337,13.67s-11.658-.6-19.021,1.55S10.742,17.6,9.9,16.988s4.6-12.914,4.6-14.6L5.373,0S2.765,10.915,1.743,13.375c-1.093,2.631-3.2,7.584-.2,11.889S12.889,27.629,17.951,28.5s27.718.311,31.675.1c4.295-.231,17.256-.846,17.256-.846Z" transform="translate(283.277 24.531)" fill="#d9d3c8"/>
      <path id="Fill_58" data-name="Fill 58" d="M16.86,12.676a9.416,9.416,0,0,1-1.249,1.457,2.9,2.9,0,0,0-.834,1.21c-.452,1.271-.731,3.06-1.09,3.441-.393.416-1.531-.643-1.944-.645S7.315,21.609,6.355,20.9-.463,14.23.029,10.146,2.319-.037,8.915,0,17.393,2.445,17.9,4.088C17.9,4.088,18.323,10.694,16.86,12.676Z" transform="translate(389.366 7.747)" fill="#eea886"/>
      <path id="Fill_60" data-name="Fill 60" d="M37.413,19.988a29.411,29.411,0,0,1-5.208,6.4,5.559,5.559,0,0,1-3.28,1.589q-.474,0-.924.012c-3.048.083-5.391.551-9.507.757-4.276.214-14.649-.384-14.955-.384s-3.3.538-3.3.538C-.833,27.6,2,12.839,2.542,12.763s3.988,1.23,7.286.692,4.6-.846,9.511-6.611S29.155-.382,31.226.079a26.025,26.025,0,0,0,6.187,0s.179,19.525,0,19.909" transform="translate(349.919 23.376)" fill="#ffc955"/>
      <path id="Fill_62" data-name="Fill 62" d="M17.287,11.443s1.229,3.192,1.88,3.632c0,0,2.372-2.514.849-8.719S12.747-.433,9.036.2C4.418.982-.231,16.642.009,18.167s5.414-8.093,9.947-7.319,4.57,1.027,7.331.595" transform="translate(387.205 5.123)" fill="#222538"/>
      <path id="Fill_64" data-name="Fill 64" d="M4.063,5.285a3.512,3.512,0,0,0-1.422.185,2.855,2.855,0,0,0-.566.251A26.418,26.418,0,0,1,0,0,39.751,39.751,0,0,0,4.063,5.285" transform="translate(390.655 22.434)" fill="#a77860"/>
      <path id="Fill_66" data-name="Fill 66" d="M4.2,10.633a5.557,5.557,0,0,1-3.28,1.589c-.316,0-.623,0-.923.013L1.5,0Z" transform="translate(377.921 39.136)" fill="#c29941"/>
      <path id="Fill_68" data-name="Fill 68" d="M23.7,36.875a103.45,103.45,0,0,1-10.13-7c-1.284-1.1-9.847-8.275-11.023-9.911S-.142,1.418.011.643s7.445-1.157,8.272.633c0,0,.381,9.644.577,11.259a8.372,8.372,0,0,0,1.906,4.431c1.529,1.88,4.785,6.244,7.937,9.773.751.841,6.968,6.614,7.939,7.453Z" transform="translate(379.345 36.646)" fill="#eea886"/>
      <path id="Fill_70" data-name="Fill 70" d="M9.275,12.685S9.735-.157,5.568,0C.3.2-.491,6.664.225,13.684c0,0,7.874.077,9.05-1" transform="translate(378.951 25.452)" fill="#ffc955"/>
      <path id="Fill_72" data-name="Fill 72" d="M3.336.029A2.184,2.184,0,0,0,4.3.84c.981.332,2.431-.307,3.147.981S4.7,6.325,3.777,6.52,1.362,5.268.2,2.412,3.336.029,3.336.029" transform="translate(401.233 69.551)" fill="#eea886"/>
      <path id="Fill_74" data-name="Fill 74" d="M5.4,0A44.71,44.71,0,0,1,8.943,3.071c1.563,1.514,3.153,3.5,2.752,3.878-.548.513-1.614-1.194-3.263-2.6C6.912,3.06,7,3.559,7,3.559s-.016-.143,1.369,1.572C9.857,6.976,11.4,9.165,10.936,9.482c-.288.2-.3.251-.952-.335.3.414.232.55.071.685-.831.7-3.441-1.69-4.477-2.638.791.733,1.294,1.352.491,1.447C5.15,8.749,1.611,5.214.223,4.064-1.291,2.81,5.4,0,5.4,0" transform="translate(402.974 70.97)" fill="#eea886"/>
      <path id="Fill_76" data-name="Fill 76" d="M.906.021S-.5,10.127.192,15.1a2.542,2.542,0,0,0,2.193.1S2.749,4.171,3.567.254c0,0-.449-.341-2.661-.234" transform="translate(354.554 36.706)" fill="#e0e0e0"/>
      <path id="Clip_79-2" data-name="Clip 79" d="M0,499.767H602.816V0H0Z" transform="translate(0 0.233)" fill="none"/>
      <g id="Mask_Group_1" data-name="Mask Group 1" clip-path="url(#clip-path-7)">
        <path id="Fill_78" data-name="Fill 78" d="M0,1.483H21.109V0H0Z" transform="translate(526.022 365.577)" fill="#fff"/>
        <path id="Fill_80" data-name="Fill 80" d="M0,6.235H21.109V0H0Z" transform="translate(526.022 368.372)" fill="#fff"/>
        <path id="Fill_81" data-name="Fill 81" d="M0,.932H12.453V0H0Z" transform="translate(516.106 376.704)" fill="#fff"/>
        <path id="Fill_82" data-name="Fill 82" d="M0,2.524H12.453V0H0Z" transform="translate(516.106 378.043)" fill="#fff"/>
        <path id="Fill_83" data-name="Fill 83" d="M0,17.47H.929V0H0Z" transform="translate(550.598 357.584)" fill="#fff"/>
        <path id="Fill_84" data-name="Fill 84" d="M0,5.529,85.792,0l.471,50.269H9.06Z" transform="translate(509.598 324.961)" fill="#c5c6cf"/>
        <path id="Fill_85" data-name="Fill 85" d="M0,.846,82.077,0l.472,50.269H5.345Z" transform="translate(513.313 324.961)" fill="#e2e3ed"/>
        <path id="Fill_86" data-name="Fill 86" d="M0,1.087S1.951,3.239,2.719,2.292,4.36,0,4.36,0Z" transform="translate(512.013 266.196)" fill="#eea987"/>
        <path id="Fill_87" data-name="Fill 87" d="M.174.5,2.685,12.2C1.912,11.246.556,9.723.117,10.176c-.628.646,1.467,3.838,1.826,5.212a30.206,30.206,0,0,0,1.3,4.389l.949,1.915,4.194-1.72s-.2-8.341-.353-10.219C7.778,6.7,1.917.085,1.348.017.323-.107.174.5.174.5" transform="translate(507.984 246.224)" fill="#eea987"/>
        <path id="Fill_88" data-name="Fill 88" d="M8.075,0a19.582,19.582,0,0,0,2.176,3.984c1,1.13,4.808,3.152,4.828,6.51.023,3.642-6.426,2.631-8.948,2.5S3.419,10.914,2.357,8.852.225,7.139.026,5.476.839.09.839.09Z" transform="translate(586.023 468.154)" fill="#e6d3cd"/>
        <path id="Fill_89" data-name="Fill 89" d="M6.088,5.125C2.522,5.9.027,6.888,0,9.01s10.263,3.52,14.344,1.381c6.091-3.192,6.71-2.23,7.385-3.825S20.919.7,20.963.195c.054-.627-7.8.459-7.8.459S9.654,4.351,6.088,5.125Z" transform="translate(521.495 468.153)" fill="#e6d3cd"/>
        <path id="Fill_90" data-name="Fill 90" d="M10.3,7.686S6.608,34.549,5.1,43.63C3.34,54.248,2.742,63.021,2.25,68.516c-.618,6.912-1.8,43.257-2.237,45.278s9.654,1.014,9.654,1.014,7.316-47.129,9.157-54.49c1.714-6.855,6.429-35.113,7.993-33.241S38.2,62.01,39.361,67.416s12.327,47.73,12.327,47.73,8.348,1.8,10.472.1c0,0-7.285-38.883-8.023-49.019-.281-3.863-2.564-46.049-9.081-63.139C41.612-5.939,10.3,7.686,10.3,7.686" transform="translate(533.733 354.359)" fill="#3c4145"/>
        <path id="Fill_91" data-name="Fill 91" d="M14.539.326S4.776,2.35,3.617,3.378C2.359,4.473.142,15.191.009,18.177a115.434,115.434,0,0,0,2.435,20.1c1.258,4.644.971,28.884.407,32.7,0,0,19.585,3.839,38.914,1.318,0,0-3.341-21.052-2.567-27.416.991-8.153,3.376-26.937,3.376-26.937S39.991,5.294,38.27,3.834,24.585,0,24.585,0Z" transform="translate(540.317 297.294)" fill="#ffc955"/>
        <path id="Fill_92" data-name="Fill 92" d="M11.044.557S-.7-3.8.033,11.845,3.52,29.078,11.245,26.893s8.374-12.058,9.38-16.807S14.884,1.24,11.044.557" transform="translate(547.85 266.804)" fill="#eea886"/>
        <path id="Fill_93" data-name="Fill 93" d="M0,16.448s6.1,4.96,11.979-2.8A41.682,41.682,0,0,1,13.518,1.465c1.8-5.882-12.3,7.842-12.3,7.842.148.1.176.692.092,1.512a16.644,16.644,0,0,1-.452,2.431C.345,15.217.464,14.868,0,16.448" transform="translate(552.923 283.649)" fill="#eea886"/>
        <path id="Fill_94" data-name="Fill 94" d="M19.311,21.129s.033-4.179-1.7-4.564S14.984,18.6,14.984,18.6l-1.4-.075s1.248-4.234-.405-5.206S1.641,13.2.4,11.772.959,1.879,3.657,1.048,13.724-1.469,18.4,2.708c0,0,4.192.027,4.183,5.063-.006,3.327-1.865,11.092-3.276,13.358" transform="translate(547.531 263.519)" fill="#163342"/>
        <path id="Fill_95" data-name="Fill 95" d="M0,6.8C9.1,5.27,10.464.081,10.484,0,6.945,4.574.452,4.373.452,4.373A16.686,16.686,0,0,1,0,6.8" transform="translate(553.782 290.096)" fill="#a77860"/>
        <path id="Fill_96" data-name="Fill 96" d="M.995.881c.519-1.379,3.448-1.2,3.148.981S1.422,7.413.45,6.782s-.171-4,.545-5.9" transform="translate(562.185 277.429)" fill="#eea886"/>
        <path id="Fill_97" data-name="Fill 97" d="M18.3,1.168S12.795,12.323,4.689,11.42,1.281,2.734,2.056,1.492c0,0,4.864-3.129,16.245-.324" transform="translate(549.769 296.796)" fill="#eea886"/>
        <path id="Fill_98" data-name="Fill 98" d="M7.322,23.205C5.033,18.74,0,1.493,0,1.493L7.123,0s3.79,8.679,5.594,14.685a49.215,49.215,0,0,0,2.32,6.263c.262.462,12.4,9.673,13.719,10.35s6.4,2.441,8.834,4.915a6.012,6.012,0,0,1,1.247,5.858c-5.153,6.642-14.669-1.994-14.669-1.994S10.53,29.464,7.322,23.205" transform="translate(509.598 265.752)" fill="#ffc955"/>
        <path id="Fill_99" data-name="Fill 99" d="M0,0S11.243,12.306,11.63,16.866c.277,3.255,2.3-9.787,2.3-9.787Z" transform="translate(528.799 301.727)" fill="#ffc955"/>
        <path id="Fill_100" data-name="Fill 100" d="M0,53.146H84.158V0H0Z" transform="translate(518.658 322.084)" fill="#f15a29"/>
        <path id="Fill_101" data-name="Fill 101" d="M10.954,11.813a4.8,4.8,0,0,0,.366-1.487s-.131-.927-.185-1.591a4.5,4.5,0,0,1-.02-.515,8.8,8.8,0,0,0-.044-2.806C10.8,4.2,9.4,0,9.4,0L5.615.563,2.329.117S-.12,7.281,0,8.445a3.056,3.056,0,0,0,.053.329A11.187,11.187,0,0,0,.98,10.887c.061.183.791,1.962,1.339,2.132a1.87,1.87,0,0,0,1.8-.253,4.475,4.475,0,0,0,2.463-.038A2.779,2.779,0,0,0,9,12.258s1.446.261,1.956-.445" transform="translate(578.778 366.089)" fill="#efaa88"/>
        <path id="Fill_102" data-name="Fill 102" d="M1.98.489C.7.986-.657,4.091.351,10.18a26.274,26.274,0,0,0,4.1,10.85c.865,1.527,6.212,11.705,6.192,13.211-.052,3.921.04,14.271-.084,15.064-.211,1.353-1.083,16.948-1.083,16.948l8.26,2s1.628-17.586,2.364-22.9a56.535,56.535,0,0,0,.2-13.813c-.71-5.624-4.775-18.055-5.32-19.044S10.445-2.8,1.98.489" transform="translate(571.232 300.369)" fill="#ffc955"/>
      </g>
    </g>
  </g>
</svg>
