<svg xmlns="http://www.w3.org/2000/svg" width="298.199" height="298.523" viewBox="0 0 298.199 298.523">
  <g id="Group_190" data-name="Group 190" transform="matrix(1, -0.017, 0.017, 1, -2.765, 3.545)">
    <path id="Fill_165" data-name="Fill 165" d="M.12.123A.024.024,0,0,0,.1.122c.069.03.078.032.016,0" transform="translate(0.329 133.473)" fill="#323657"/>
    <path id="Fill_168" data-name="Fill 168" d="M28.08,2.507h80.744L83.376,80.8l2.38.776L112.271,0H26.263L0,80.8l2.38.776Z" transform="translate(156.875 216.185)" fill="#898fbf"/>
    <path id="Fill_169" data-name="Fill 169" d="M28.9,80.8,3.447,2.507H84.191l25.7,79.068,2.38-.776L86.008,0H0L26.515,81.575Z" transform="translate(183.541 216.185)" fill="#898fbf"/>
    <path id="Fill_170" data-name="Fill 170" d="M0,2.507H98.828V0H0Z" transform="translate(177.443 240.838)" fill="#898fbf"/>
    <path id="Fill_171" data-name="Fill 171" d="M0,2.507H118.24V0H0Z" transform="translate(167.262 268.061)" fill="#898fbf"/>
    <path id="Fill_172" data-name="Fill 172" d="M20.292,19.859S22.3,16.33,19.112,6.873A9.508,9.508,0,0,0,1.942,4.415c-3.4,5.86-2.249,9.5,2.751,16.115s13.523,2.352,15.6-.672" transform="translate(205.124 20.148)" fill="#eea886"/>
    <path id="Fill_173" data-name="Fill 173" d="M6.948.5S6.42,4.385,6.353,4.969.471,4.625.471,4.625L0,0S6.221-.047,6.948.5" transform="translate(193.645 202.217)" fill="#eea886"/>
    <path id="Fill_174" data-name="Fill 174" d="M7.325.263a16.057,16.057,0,0,0,3.625,3.36c1.783,1.02,4.584,1.424,5.637,2.48.761.762,2.771,4.043-4.632,3.978S.984,10.544.191,9.286,1.338,0,1.338,0A20.353,20.353,0,0,0,7.325.263" transform="translate(192.736 206.429)" fill="#152b3d"/>
    <path id="Fill_175" data-name="Fill 175" d="M6.949.5S6.42,4.385,6.354,4.969.471,4.625.471,4.625L0,0S6.222-.047,6.949.5" transform="translate(233.92 202.217)" fill="#eea886"/>
    <path id="Fill_176" data-name="Fill 176" d="M7.325.263a16.064,16.064,0,0,0,3.625,3.36c1.782,1.02,8.342,1.858,9.4,2.914.761.762,2.026,3.831-8.39,3.544-7.4-.2-10.972.463-11.765-.795S1.338,0,1.338,0A30.647,30.647,0,0,0,7.325.263" transform="translate(233.011 206.429)" fill="#152b3d"/>
    <path id="Fill_177" data-name="Fill 177" d="M9.56,0S6.578,9.285,6.971,17.286,5.428,34.043,4.638,42.4C3.756,51.719.147,73.778.017,78.763s.56,20.9.56,20.9l7.223.175s6.067-38.565,7.638-42.5S24.8,25.349,25.063,22.2,9.56,0,9.56,0" transform="translate(192.992 106.009)" fill="#ffc05c"/>
    <path id="Fill_178" data-name="Fill 178" d="M29.95,1.97s4.385,24.549,4.908,29.446.873,23.7,1.135,26.759,1.746,40.052,3.142,44.6H31.082S22.813,75.883,22.813,63.16,17.336,35.5,13.8,27.106,2.174,18.512,0,2.937c0,0,27.008-5.907,29.95-.967" transform="translate(202.552 103.072)" fill="#ffc05c"/>
    <path id="Fill_179" data-name="Fill 179" d="M12.807,2.9s-.909,2.649,0,4.539S1.2,8.192,1.2,8.192A13.509,13.509,0,0,0,.13,1.072C-1.506-2.142,12.807,2.9,12.807,2.9" transform="translate(209.687 39.607)" fill="#eea886"/>
    <path id="Fill_180" data-name="Fill 180" d="M0,2.989s4.5,4.632,30.933-.722L30.53,0,.482,1.133Z" transform="translate(201.971 105.042)" fill="#ffc05c"/>
    <path id="Fill_181" data-name="Fill 181" d="M41.593,32.246s4.623.473,5.944.725,10.212-1.593,12.036-1.782,9.6-5.528,9.853-6.158,4.732-11.994,4.983-14.452,4.364-1.189,4.011.505c-.66,3.167-1.507,10.857-1.971,13.085-.5,2.407-1.845,7.857-2.6,8.528S66.092,38.7,59.236,40.973A58.267,58.267,0,0,0,47.22,46.581H13.431S.289,27.761.006,24.926,9.186,3.245,11.073.882s4.616.771,4.616.771S10.035,18.272,9.28,20.635,15.857,33.38,17.87,33.412s7.181-.63,9.477-.725a16.053,16.053,0,0,0,4.717-1.1Z" transform="translate(182.796 15.411)" fill="#eea886"/>
    <path id="Fill_182" data-name="Fill 182" d="M51.874,18.511s-4.136,2.755-4.513,7.481a98.194,98.194,0,0,1-2.642,14.744c-.755,2.552.66,21.077.849,22.4S19.422,67.6,15.378,64.459c0,0-1.132-17.3-1.6-22.211s-2.736-16.824-3.491-18.43S.377,9.351,0,7.656C0,7.656,4.734.094,8.131,0c0,0,5.394,6.333,7.153,6.616S27.823,4.92,27.824,4.9c0,0,1.177,1.605,7.432-.285,0,0,7.449.842,8.661,1,1.467.188,11.668-1.282,11.668-1.282s4.092,6.923,3.375,10.418Z" transform="translate(187.076 41.717)" fill="#5a46cd"/>
    <path id="Fill_183" data-name="Fill 183" d="M4.255,18.753s.924-4.381-.189-5.638c-.633-.716-2.154-2.611-2.294-2.89S0,9.007,0,8.554s1.6-1.01,2.989.278S5.248,10.4,5.8,10.26,7.16,5.49,7.229,4.341,7.741.163,8.458.372,9.14,1.9,9.14,1.9s.834-2.3,1.39-1.845.487,1.567.487,1.567S12.06.337,12.338,1.277a3.258,3.258,0,0,1,0,1.776s1.077-.592,1.147.87-.313,5.745-1.078,7.277-3.626,5.539-3.968,7.1-4.185.449-4.185.449" transform="translate(252.713 8.714)" fill="#eea886"/>
    <path id="Fill_184" data-name="Fill 184" d="M3.921,19.678s3.144-5.294,4.213-5.766a17.975,17.975,0,0,0,3.9-1.686c1.321-.945,3.066-1.733,2.972-2.048s-1.651-.189-3.318.536-2.4.374-2.555,0a9.775,9.775,0,0,1,1.392-3.677c.5-.63,4.089-4.243,3.491-4.779S11.09,3.7,10.713,4.113c0,0,1.855-3.907,1.132-4.1s-2.075,1.2-2.075,1.2.157-3.339-3.428,2.08c0,0,.755-1.8-.346-1.2S3.826,6.067,3.48,7.768,1.564,14.889.226,16.2s3.7,3.481,3.7,3.481" transform="translate(193.642 0.096)" fill="#eea886"/>
    <path id="Fill_185" data-name="Fill 185" d="M5.318,21.335A14.267,14.267,0,0,0,10.5,20.263c3.523-1.218,3.785-7.389,4.547-6.658a2.224,2.224,0,0,0,3.609-.42s-1.719-2.269-.923-3.361a8.449,8.449,0,0,1,2.094-1.889S17.347-4.027,6.073,1.423c-13.209,6.385-.755,19.912-.755,19.912" transform="translate(204.499 19.344)" fill="#353a3d"/>
    <path id="Fill_186" data-name="Fill 186" d="M11.932,1.746l-.4-1.729A91.339,91.339,0,0,0,.413.441L0,2.507s5.027,2.284,11.932-.761" transform="translate(210.562 45.297)" fill="#5a46cd"/>
    <path id="Fill_187" data-name="Fill 187" d="M3.362.94C2.709-.148.292-.882.008,2.2c-.22,2.389,4.319,5,4.361,2.773A6.735,6.735,0,0,0,3.362.94" transform="translate(217.357 30.497)" fill="#eea886"/>
    <path id="Fill_188" data-name="Fill 188" d="M.331,0s2.6.064,3.855,1.2A2.6,2.6,0,0,1,3.976,2.5,16.028,16.028,0,0,0,0,1.249S.028.3.331,0" transform="translate(256.809 26.472)" fill="#e55353"/>
    <path id="Fill_189" data-name="Fill 189" d="M2.145.684A1.117,1.117,0,1,1,.682.088a1.12,1.12,0,0,1,1.463.6" transform="translate(258.055 26.437)" fill="#353a3d"/>
  </g>
</svg>
