<svg xmlns="http://www.w3.org/2000/svg" xmlns:xlink="http://www.w3.org/1999/xlink" width="206" height="50.001" viewBox="0 0 206 50.001">
    <defs>
        <clipPath id="clip-path">
        <path id="Clip_22" data-name="Clip 22" d="M0,0H14.6V18.818H0Z" transform="translate(0.169 0.039)" fill="none"/>
        </clipPath>
        <clipPath id="clip-path-2">
        <path id="Clip_25" data-name="Clip 25" d="M0,0H23.645V50H0Z" transform="translate(0.033 -0.001)" fill="none"/>
        </clipPath>
    </defs>
    <g id="logo" transform="translate(0 0.001)">
        <path id="Fill_1" data-name="Fill 1" d="M8.48,28A12,12,0,0,1,2.2,26.63,4.4,4.4,0,0,1,0,22.689a3.966,3.966,0,0,1,1.064-2.843A6.335,6.335,0,0,1,4.257,18.23a3.869,3.869,0,0,1-1.529-1.21,2.6,2.6,0,0,1-.16-3.242,7.272,7.272,0,0,1,2.044-1.642,5.131,5.131,0,0,1-2.339-2.077,6.554,6.554,0,0,1-.853-3.438A5.975,5.975,0,0,1,3.547,1.736,9.441,9.441,0,0,1,9.628,0c.35,0,.959.04,1.807.12.872.081,1.491.153,1.893.22H20V3.558l-2.618.97a4.725,4.725,0,0,1,.541,2.3,5.841,5.841,0,0,1-2.171,4.834c-1.44,1.141-3.619,1.719-6.478,1.719a8.324,8.324,0,0,1-1.689-.136,1.791,1.791,0,0,0-.237.834c0,.328.267.582.794.757a6.763,6.763,0,0,0,2.078.264h3.175a7.341,7.341,0,0,1,4.828,1.366,5.1,5.1,0,0,1,1.609,4.1,6.227,6.227,0,0,1-2.982,5.481C14.871,27.341,12.055,28,8.48,28Zm-.372-7.711a3.131,3.131,0,0,0-1.8.5,1.473,1.473,0,0,0-.734,1.235,1.5,1.5,0,0,0,.878,1.319,4.739,4.739,0,0,0,2.347.5,10.182,10.182,0,0,0,3.843-.6c.958-.4,1.444-.925,1.444-1.558a1.124,1.124,0,0,0-.878-1.08,7.821,7.821,0,0,0-2.517-.316ZM9.7,3.694c-1.356,0-2.044,1-2.044,2.962S8.339,9.617,9.7,9.617a1.688,1.688,0,0,0,1.461-.732,3.844,3.844,0,0,0,.516-2.2C11.672,4.7,11.007,3.694,9.7,3.694Z" transform="translate(0 16)" fill="#040f26"/>
        <path id="Fill_3" data-name="Fill 3" d="M10.351,20c-3.262,0-5.83-.863-7.633-2.566S0,13.274,0,10.128C0,6.88.847,4.354,2.518,2.618S6.608,0,9.708,0a9.687,9.687,0,0,1,6.869,2.277A8.593,8.593,0,0,1,19,8.832V11.8H6.86A3.3,3.3,0,0,0,8.067,14.34a4.818,4.818,0,0,0,3.1.92,15.328,15.328,0,0,0,3.291-.332,16.572,16.572,0,0,0,3.256-1.134v4.792a12.172,12.172,0,0,1-3.3,1.108A23.292,23.292,0,0,1,10.351,20Zm-.4-15.465a2.867,2.867,0,0,0-2.006.742A3.464,3.464,0,0,0,7,7.6h5.836a3.3,3.3,0,0,0-.808-2.233A2.7,2.7,0,0,0,9.951,4.535Z" transform="translate(20 16)" fill="#040f26"/>
        <path id="Fill_5" data-name="Fill 5" d="M12.283,19V8.816a5.646,5.646,0,0,0-.558-2.81,1.926,1.926,0,0,0-1.795-.948,2.622,2.622,0,0,0-2.457,1.3,9.5,9.5,0,0,0-.756,4.466V19H0V.33H5.067l.842,2.307h.4A5.262,5.262,0,0,1,8.684.659,8.72,8.72,0,0,1,12.179,0,6.793,6.793,0,0,1,17.2,1.8,6.844,6.844,0,0,1,19,6.855V19Z" transform="translate(41 16)" fill="#040f26"/>
        <path id="Fill_7" data-name="Fill 7" d="M10.351,20c-3.262,0-5.83-.863-7.633-2.566S0,13.273,0,10.128C0,6.88.847,4.354,2.518,2.618S6.608,0,9.708,0a9.687,9.687,0,0,1,6.869,2.277A8.593,8.593,0,0,1,19,8.832V11.8H6.86A3.3,3.3,0,0,0,8.067,14.34a4.818,4.818,0,0,0,3.1.92,15.328,15.328,0,0,0,3.291-.332,16.572,16.572,0,0,0,3.256-1.134v4.792a12.174,12.174,0,0,1-3.3,1.108A23.313,23.313,0,0,1,10.351,20Zm-.4-15.465a2.867,2.867,0,0,0-2.006.742A3.464,3.464,0,0,0,7,7.6h5.836a3.3,3.3,0,0,0-.808-2.233A2.7,2.7,0,0,0,9.951,4.535Z" transform="translate(62 16)" fill="#040f26"/>
        <path id="Fill_9" data-name="Fill 9" d="M11.925,0a10.381,10.381,0,0,1,1.691.132L14,.2l-.61,6.081a10.571,10.571,0,0,0-2.319-.2,4.585,4.585,0,0,0-3.243.964A3.655,3.655,0,0,0,6.817,9.821V19H0V.33H5.073L6.137,3.312h.331a6.611,6.611,0,0,1,2.38-2.4A5.93,5.93,0,0,1,11.925,0" transform="translate(82 16)" fill="#040f26"/>
        <path id="Fill_11" data-name="Fill 11" d="M8.8,9.391H4.757V26H3.192V9.391H0V8.429l3.192-.614V6.421a8.167,8.167,0,0,1,1.162-4.87A4.44,4.44,0,0,1,8.155,0,9.431,9.431,0,0,1,11,.448l-.364,1.427A8.033,8.033,0,0,0,8.123,1.46,2.9,2.9,0,0,0,5.524,2.6a6.8,6.8,0,0,0-.766,3.692V7.964H8.8Z" transform="translate(120 9)" fill="#040f26"/>
        <path id="Fill_13" data-name="Fill 13" d="M1.6,0V12.083a6.1,6.1,0,0,0,1.128,4.094,4.432,4.432,0,0,0,3.5,1.278,5.942,5.942,0,0,0,4.67-1.681q1.5-1.682,1.5-5.475V0H14V18.657H12.626l-.294-2.574h-.1Q10.5,19,6.068,19,0,19,0,12.186V0Z" transform="translate(131 17)" fill="#040f26"/>
        <path id="Fill_15" data-name="Fill 15" d="M7.3,21.523a11.983,11.983,0,0,0,2.7-.268V22.6a8.472,8.472,0,0,1-2.73.4,4.393,4.393,0,0,1-3.5-1.293,6.087,6.087,0,0,1-1.127-4.063V5.859H0V4.885L2.648,4.13,3.47,0h.839V4.415H9.556V5.859H4.309v11.55a5.356,5.356,0,0,0,.723,3.106A2.6,2.6,0,0,0,7.3,21.523" transform="translate(149 13)" fill="#040f26"/>
        <path id="Fill_17" data-name="Fill 17" d="M1.6,0V12.083a6.1,6.1,0,0,0,1.128,4.094,4.431,4.431,0,0,0,3.5,1.278A5.941,5.941,0,0,0,10.9,15.773q1.5-1.682,1.5-5.475V0H14V18.657H12.626l-.294-2.574h-.1Q10.5,19,6.068,19,0,19,0,12.186V0Z" transform="translate(161 17)" fill="#040f26"/>
        <path id="Fill_19" data-name="Fill 19" d="M7.431,0A14.934,14.934,0,0,1,10,.24L9.67,1.869a10.188,10.188,0,0,0-2.448-.291A4.771,4.771,0,0,0,3.264,3.6a8.173,8.173,0,0,0-1.545,5.11V19H0V.36H1.458l.174,3.361h.122A7.927,7.927,0,0,1,4.236.832,5.872,5.872,0,0,1,7.431,0" transform="translate(180 17)" fill="#040f26"/>
        <g id="Group_23" data-name="Group 23" transform="translate(191 17)">
        <path id="Clip_22-2" data-name="Clip 22" d="M0,0H14.6V18.818H0Z" transform="translate(0.169 0.039)" fill="none"/>
        <g id="Group_23-2" data-name="Group 23" clip-path="url(#clip-path)">
            <path id="Fill_21" data-name="Fill 21" d="M8.264,18.817a7.776,7.776,0,0,1-6.082-2.435A9.915,9.915,0,0,1,0,9.559,10.781,10.781,0,0,1,2.107,2.611,6.947,6.947,0,0,1,7.787,0a6.125,6.125,0,0,1,4.989,2.236A9.356,9.356,0,0,1,14.6,8.308V9.643H1.712a8.7,8.7,0,0,0,1.721,5.705,6.041,6.041,0,0,0,4.831,1.968,14.914,14.914,0,0,0,2.692-.216,16.264,16.264,0,0,0,2.939-.935v1.5a13.052,13.052,0,0,1-2.8.909A15.427,15.427,0,0,1,8.264,18.817ZM7.787,1.468A5.348,5.348,0,0,0,3.639,3.195,8.239,8.239,0,0,0,1.811,8.174H12.874a8.024,8.024,0,0,0-1.349-4.929A4.452,4.452,0,0,0,7.787,1.468Z" transform="translate(0.169 0.039)" fill="#040f26"/>
        </g>
        </g>
        <g id="Group_26" data-name="Group 26" transform="translate(96)">
        <path id="Clip_25-2" data-name="Clip 25" d="M0,0H23.645V50H0Z" transform="translate(0.033 -0.001)" fill="none"/>
        <g id="Group_26-2" data-name="Group 26" clip-path="url(#clip-path-2)">
            <path id="Fill_24" data-name="Fill 24" d="M18.561,37.881a7,7,0,0,1-6.8,7.014,6.351,6.351,0,0,1-6.54-6.571c-.045-3.276,1.155-4.411,2.864-6.766,2.554-3.406,11.406-8.232,14.429-14.541a11.982,11.982,0,0,0,1.135-5.106A11.85,11.85,0,0,0,11.856,0,11.85,11.85,0,0,0,.067,11.911c0,5.282,4.094,9.691,7.089,12.191l3.787-3.189S5.79,17.121,5.152,11.958c-.477-3.845,3.045-7.013,6.8-7.013a6.909,6.909,0,0,1,6.8,7.013c0,2.371-2.222,5.076-2.888,5.734-2.107,3.221-8.1,6.152-13.677,13.478A11.936,11.936,0,0,0,11.791,50,11.85,11.85,0,0,0,23.58,38.09c0-5.388-2.86-8.9-7.044-12.436l-3.831,3.1s5.99,5.13,5.855,9.125" transform="translate(0.033 -0.001)" fill="#f15a29"/>
        </g>
        </g>
    </g>
</svg>    