<svg id="noun_digital_marketing_3654487_copy" data-name="noun_digital marketing_3654487 copy" xmlns="http://www.w3.org/2000/svg" width="36" height="35" viewBox="0 0 36 35">
  <g id="Group" transform="translate(0 0)">
    <g id="Group_18" data-name="Group 18">
      <path id="Shape" d="M3.75,26.25A3.826,3.826,0,0,1,1.1,25.192,3.545,3.545,0,0,1,0,22.639V21.194a.736.736,0,0,1,.75-.722H1.5V2.417A2.209,2.209,0,0,1,3.75.25H10.5a.736.736,0,0,1,.75.722.737.737,0,0,1-.75.723H3.75A.736.736,0,0,0,3,2.417V20.472c12.046,0,11.625-.166,11.918.4l.547,1.048h5.071c.585-1.127.667-1.445,1.215-1.445H33V2.417a.736.736,0,0,0-.751-.722h-4.5A.737.737,0,0,1,27,.972.736.736,0,0,1,27.75.25h4.5A2.209,2.209,0,0,1,34.5,2.417V20.472h.751a.736.736,0,0,1,.75.722v1.444a3.545,3.545,0,0,1-1.1,2.553A3.826,3.826,0,0,1,32.25,26.25Z" transform="translate(0 8.75)" fill="#393939"/>
      <path id="Shape-2" data-name="Shape" d="M3.152,17.95A4.431,4.431,0,0,1-.379,15.038a4.127,4.127,0,0,1,1.1-4.321L2.336,9.206A.778.778,0,0,1,3.2,9.085a18.423,18.423,0,0,0,2.562-5.75A2.068,2.068,0,0,1,6.21.5,2.333,2.333,0,0,1,9.22.641L10.868,2.2a3.892,3.892,0,0,1,4.676.471,3.434,3.434,0,0,1,.509,4.446L17.7,8.686a2.063,2.063,0,0,1,.209,2.9,2.327,2.327,0,0,1-3.019.426A19.752,19.752,0,0,0,8.9,14.4l4.5,3.321a.7.7,0,0,1,.288.52.694.694,0,0,1-.221.549c-2.3,2.223-2.232,2.223-2.651,2.223-.024,0-.038,0-.056,0C10.612,21.016,10.281,20.858,3.152,17.95Z" transform="translate(7.593 4.983)" fill="#393939"/>
      <path id="Path" d="M.745,4.378c.415,0,.222.088,3.489-3.128a.724.724,0,0,0,0-1.035.752.752,0,0,0-1.052,0L.219,3.131a.721.721,0,0,0-.162.8A.741.741,0,0,0,.745,4.378Z" transform="translate(25.181 1.455)" fill="#393939"/>
      <path id="Path-2" data-name="Path" d="M1.481,4.375V.729A.735.735,0,0,0,.741,0,.735.735,0,0,0,0,.729V4.375A.735.735,0,0,0,.741,5.1.735.735,0,0,0,1.481,4.375Z" transform="translate(20.741)" fill="#393939"/>
    </g>
  </g>
</svg>
