<?xml version="1.0" encoding="utf-8"?>
<svg width="36px" height="35px" viewBox="0 0 36 35" version="1.1" xmlns:xlink="http://www.w3.org/1999/xlink" xmlns="http://www.w3.org/2000/svg">
  <g id="noun_web-design_3347810">
    <g id="Group">
      <path d="M32.2657 30.625L2.73438 30.625C1.22498 30.6232 0.00180804 29.4 0 27.8906L0 4.92177C0.00180804 3.41237 1.22498 2.1892 2.73438 2.18739L3.82814 2.18739L3.82814 3.28114L2.73438 3.28114C1.82829 3.28114 1.09375 4.01568 1.09375 4.92177L1.09375 27.8906C1.09375 28.7967 1.82829 29.5312 2.73438 29.5312L32.2657 29.5312C33.1718 29.5312 33.9064 28.7967 33.9064 27.8906L33.9064 4.92177C33.9064 4.01568 33.1718 3.28114 32.2657 3.28114L18.0469 3.28114L18.0469 2.18739L32.2657 2.18739C33.7751 2.1892 34.9983 3.41237 35.0001 4.92177L35.0001 27.8906C34.9983 29.4 33.7751 30.6232 32.2657 30.625Z" id="Path" fill="#393939" stroke="none" />
      <path d="M4.92189 2.18739L6.01565 2.18739L6.01565 3.28114L4.92189 3.28114L4.92189 2.18739Z" id="Rectangle" fill="#393939" stroke="none" />
      <path d="M7.1094 2.18739L14.7657 2.18739L14.7657 3.28114L7.1094 3.28114L7.1094 2.18739Z" id="Rectangle" fill="#393939" stroke="none" />
      <path d="M10.407 32.1338L10.9533 29.9462L12.014 30.2111L11.4676 32.3987L10.407 32.1338Z" id="Rectangle" fill="#393939" stroke="none" />
      <path d="M24.0626 35L9.84378 35C9.54175 35 9.29691 34.7552 9.29691 34.4531L9.29691 33.3594C9.29691 32.4533 10.0314 31.7187 10.9375 31.7187L22.2683 31.7187L21.8915 30.2105L22.9524 29.9458L23.4113 31.7789C24.119 31.9786 24.6083 32.6239 24.6095 33.3594L24.6095 34.4531C24.6095 34.7552 24.3646 35 24.0626 35ZM10.3907 33.9062L23.5157 33.9062L23.5157 33.3594C23.5157 33.0573 23.2709 32.8125 22.9688 32.8125L10.9375 32.8125C10.6355 32.8125 10.3907 33.0573 10.3907 33.3594L10.3907 33.9062Z" id="Shape" fill="#393939" stroke="none" />
      <path d="M0.546877 25.1562L34.4532 25.1562L34.4532 26.25L0.546877 26.25L0.546877 25.1562Z" id="Rectangle" fill="#393939" stroke="none" />
      <path d="M2.18751 27.3437L3.28126 27.3437L3.28126 28.4375L2.18751 28.4375L2.18751 27.3437Z" id="Rectangle" fill="#393939" stroke="none" />
      <path d="M4.37501 27.3437L7.65628 27.3437L7.65628 28.4375L4.37501 28.4375L4.37501 27.3437Z" id="Rectangle" fill="#393939" stroke="none" />
      <path d="M6.99401 14.1897L6.99401 14.1897C6.84898 14.1897 6.7099 14.132 6.60737 14.0295L5.11111 12.5327C4.89762 12.3191 4.89762 11.9729 5.11111 11.7594L16.7104 0.160118C16.9239 -0.0533727 17.2701 -0.0533727 17.4837 0.160118L18.9805 1.65692C19.1939 1.87048 19.1939 2.21665 18.9805 2.4302L7.38284 14.0295C7.27977 14.1326 7.13979 14.1902 6.99401 14.1897ZM6.27104 12.146L6.99401 12.8695L17.8222 2.04137L17.097 1.32004L6.27104 12.146Z" id="Shape" fill="#393939" stroke="none" />
      <path d="M4.37501 15.3124C4.19119 15.3124 4.01967 15.22 3.91849 15.0666C3.81731 14.9131 3.80001 14.719 3.87243 14.5501L4.99517 11.9305L6.00033 12.3615L5.41408 13.7265L6.78127 13.1402L7.21166 14.1454L4.59048 15.2681C4.52245 15.2975 4.44911 15.3126 4.37501 15.3124Z" id="Path" fill="#393939" stroke="none" />
      <path d="M32.2657 24.0625L2.73438 24.0625C2.43235 24.0625 2.18751 23.8176 2.18751 23.5156L2.18751 4.92177C2.18751 4.61974 2.43235 4.3749 2.73438 4.3749L10.3907 4.3749L10.3907 5.46865L3.28126 5.46865L3.28126 22.9687L16.9532 22.9687L16.9532 4.92177C16.9532 4.61974 17.198 4.3749 17.5001 4.3749L32.2657 4.3749C32.5678 4.3749 32.8126 4.61974 32.8126 4.92177L32.8126 23.5156C32.8126 23.8176 32.5678 24.0625 32.2657 24.0625ZM18.0469 22.9687L31.7189 22.9687L31.7189 5.46865L18.0469 5.46865L18.0469 22.9687Z" id="Shape" fill="#393939" stroke="none" />
      <path d="M4.37501 16.4062L5.46877 16.4062L5.46877 17.4999L4.37501 17.4999L4.37501 16.4062Z" id="Rectangle" fill="#393939" stroke="none" />
      <path d="M6.56252 16.4062L15.8594 16.4062L15.8594 17.4999L6.56252 17.4999L6.56252 16.4062Z" id="Rectangle" fill="#393939" stroke="none" />
      <path d="M4.37501 18.5937L15.8594 18.5937L15.8594 19.6874L4.37501 19.6874L4.37501 18.5937Z" id="Rectangle" fill="#393939" stroke="none" />
      <path d="M4.37501 20.7812L15.8594 20.7812L15.8594 21.875L4.37501 21.875L4.37501 20.7812Z" id="Rectangle" fill="#393939" stroke="none" />
      <path d="M17.5001 13.6718L32.2657 13.6718L32.2657 14.7656L17.5001 14.7656L17.5001 13.6718Z" id="Rectangle" fill="#393939" stroke="none" />
      <path d="M17.8867 12.9647L17.1134 12.1914L22.5822 6.72264C22.7957 6.50915 23.1419 6.50915 23.3555 6.72264L27.7305 11.0977L26.9572 11.8709L22.9688 7.88257L17.8867 12.9647Z" id="Path" fill="#393939" stroke="none" />
      <path d="M31.8791 11.3241L28.4376 7.88257L26.0899 10.2303L25.3166 9.45702L28.051 6.72264C28.2645 6.50915 28.6107 6.50915 28.8242 6.72264L32.6524 10.5508L31.8791 11.3241Z" id="Path" fill="#393939" stroke="none" />
      <path d="M30.0782 21.875L19.6876 21.875C19.3855 21.875 19.1407 21.6301 19.1407 21.3281L19.1407 16.4062C19.1407 16.1042 19.3855 15.8593 19.6876 15.8593L30.0782 15.8593C30.3803 15.8593 30.6251 16.1042 30.6251 16.4062L30.6251 21.3281C30.6251 21.6301 30.3803 21.875 30.0782 21.875ZM20.2344 20.7812L29.5313 20.7812L29.5313 16.9531L20.2344 16.9531L20.2344 20.7812Z" id="Shape" fill="#393939" stroke="none" />
      <path d="M19.4536 16.9004L19.9215 15.9125L30.3124 20.8342L29.8444 21.8222L19.4536 16.9004Z" id="Rectangle" fill="#393939" stroke="none" />
      <path d="M19.4533 20.8331L29.8448 15.9126L30.3126 16.9007L19.9212 21.8211L19.4533 20.8331Z" id="Rectangle" fill="#393939" stroke="none" />
    </g>
  </g>
</svg>