<?xml version="1.0" encoding="utf-8"?>
<svg width="1429px" height="507px" viewBox="0 0 1429 507" version="1.1" xmlns:xlink="http://www.w3.org/1999/xlink" xmlns="http://www.w3.org/2000/svg">
  <defs>
    <linearGradient x1="0.0017419764" y1="0.5" x2="1" y2="0.5" id="gradient_1">
      <stop offset="0" stop-color="#F15A29" />
      <stop offset="1" stop-color="#FF0973" />
    </linearGradient>
    <filter filterUnits="userSpaceOnUse" color-interpolation-filters="sRGB" id="filter_1">
      <feFlood flood-opacity="0" result="BackgroundImageFix" />
      <feColorMatrix in="SourceAlpha" type="matrix" values="0 0 0 0 0 0 0 0 0 0 0 0 0 0 0 0 0 0 127 0" />
      <feOffset dx="5" dy="8" />
      <feGaussianBlur stdDeviation="7.5" />
      <feColorMatrix type="matrix" values="0 0 0 0 1 0 0 0 0 0.03529412 0 0 0 0 0.4509804 0 0 0 0.29803923 0" />
      <feBlend mode="normal" in2="BackgroundImageFix" result="effect0_dropShadow" />
      <feBlend mode="normal" in="SourceGraphic" in2="effect0_dropShadow" result="shape" />
    </filter>
  </defs>
  <g filter="url(#filter_1)">
    <g id="Group-3" transform="translate(17.5 14.5)">
      <path d="M1180 168.978L1123 199.978C1122.24 200.653 1083.57 217.99 1061.1 207.954C1037.08 197.214 1022.01 173.442 1021.42 147.154C1021.36 144.363 1021.22 141.555 1021 138.731C1018.2 102.311 1002.08 69.3789 977.618 44.7369C977.596 44.7142 977.57 44.6883 977.547 44.6655C976.14 43.2504 974.7 41.8677 973.238 40.5077C973.053 40.3357 972.874 40.1572 972.689 39.9884C971.369 38.7745 970.027 37.593 968.669 36.4278C968.321 36.1291 967.98 35.824 967.626 35.5254C966.407 34.4998 965.166 33.5001 963.915 32.5134C963.402 32.1076 962.895 31.6922 962.375 31.2929C961.254 30.4296 960.11 29.5922 958.966 28.7612C958.293 28.2711 957.624 27.7745 956.948 27.2974C955.915 26.5736 954.865 25.8757 953.819 25.1779C953 24.6326 952.184 24.0841 951.352 23.5518C950.4 22.9448 949.432 22.3606 948.464 21.7731C947.518 21.1953 946.572 20.6208 945.611 20.0626C944.72 19.5497 943.814 19.0564 942.913 18.5598C941.854 17.9788 940.801 17.3978 939.729 16.8395C938.881 16.3981 938.02 15.9794 937.162 15.5509C936.018 14.9829 934.871 14.4182 933.711 13.8794C932.892 13.4964 932.06 13.1393 931.231 12.7725C930.016 12.2337 928.801 11.6982 927.566 11.1919C926.754 10.8575 925.935 10.5427 925.113 10.2214C923.855 9.73125 922.597 9.24439 921.324 8.78673C920.485 8.48488 919.644 8.20574 918.802 7.92011C917.528 7.48842 916.254 7.05998 914.968 6.66075C914.097 6.39135 913.216 6.14143 912.336 5.88826C911.065 5.52148 909.794 5.15796 908.511 4.82364C907.581 4.58021 906.639 4.3595 905.7 4.13554C904.462 3.83693 903.224 3.54156 901.973 3.27541C900.962 3.06443 899.948 2.86968 898.931 2.67818C897.736 2.45098 896.543 2.22377 895.337 2.02254C894.239 1.84402 893.134 1.68498 892.026 1.52918C890.899 1.37014 889.768 1.20785 888.63 1.07152C887.431 0.92871 886.222 0.815108 885.017 0.701506C884.305 0.633344 883.6 0.539217 882.882 0.484039C882.573 0.458072 882.271 0.458072 881.962 0.435352C881.485 0.402894 881.013 0.34447 880.536 0.312012C879.307 0.234114 878.095 0.224377 876.874 0.17569C875.701 0.130249 874.524 0.0653335 873.354 0.0458589C871.775 0.0198927 870.209 0.0458589 868.639 0.0685793C867.418 0.0848082 866.189 0.0783166 864.974 0.123757C863.518 0.178936 862.075 0.289292 860.626 0.386665C859.32 0.474301 858.004 0.535971 856.704 0.656065C855.463 0.769667 854.234 0.941693 852.999 1.08775C851.524 1.25978 850.042 1.40908 848.577 1.62331C847.979 1.71094 847.394 1.83428 846.799 1.93165C839.858 3.03846 833.073 4.61267 826.483 6.63478C826.233 6.71268 825.983 6.77435 825.736 6.84901C823.712 7.48193 821.716 8.18302 819.731 8.89709C819.27 9.06262 818.805 9.20868 818.347 9.38071C816.436 10.0883 814.551 10.8575 812.676 11.643C812.169 11.8572 811.656 12.052 811.149 12.2695C809.297 13.0712 807.471 13.9216 805.657 14.7947C805.16 15.0316 804.656 15.2588 804.159 15.5055C802.353 16.3948 800.578 17.3361 798.814 18.2936C798.333 18.5565 797.849 18.8097 797.371 19.0758C795.607 20.0626 793.868 21.0915 792.149 22.1431C791.704 22.419 791.252 22.6884 790.81 22.9643C789.075 24.0516 787.372 25.1779 785.689 26.3302C785.286 26.606 784.883 26.8787 784.484 27.1578C782.781 28.349 781.107 29.5759 779.453 30.8353C779.106 31.1014 778.758 31.3644 778.413 31.6337C776.733 32.9386 775.079 34.2758 773.458 35.6488C773.172 35.889 772.889 36.1324 772.607 36.3726C770.943 37.8007 769.312 39.2613 767.713 40.7576C767.505 40.9524 767.297 41.1504 767.089 41.3484C765.435 42.9128 763.813 44.513 762.234 46.1489C762.111 46.2754 761.997 46.402 761.877 46.5254C760.223 48.2489 758.608 50.0081 757.035 51.8127C757.022 51.829 757.006 51.8452 756.993 51.8614C733.853 78.4184 719.886 113.106 719.997 151.02C720 174.873 705.969 196.506 684.168 206.247L676.158 209.827C654.844 219.35 629.557 216.055 612.324 200.317C585.509 175.831 549.836 160.871 510.728 160.871C472.745 160.871 438.004 174.98 411.472 198.223C392.479 214.864 365.495 218.853 342.433 208.545L341.318 208.051C317.077 197.217 301.999 173.445 301.418 147.161C301.362 144.665 301.245 142.162 301.067 139.647C295.851 66.1493 236.476 6.30047 162.94 0.484039C70.2149 -6.85142 -6.896 70.2001 0.490144 162.831C6.33277 236.111 66.0263 295.324 139.426 300.699C181.572 303.782 220.43 289.442 249.52 264.161C269.023 247.212 296.758 243.489 320.356 254.031C344.379 264.765 359.454 288.543 360.039 314.824C360.156 320.047 360.539 325.321 361.202 330.641C369.713 398.858 425.016 453.348 493.409 461.004C584.239 471.177 661.457 400.136 661.457 311.423L661.457 311.033C661.425 287.151 675.466 265.485 697.289 255.735L705.299 252.158C726.613 242.632 751.897 245.926 769.133 261.665C780.386 271.941 793.212 280.51 807.185 287.031C807.334 287.099 807.48 287.174 807.633 287.245C809.193 287.966 810.769 288.647 812.355 289.316C812.943 289.566 813.524 289.819 814.113 290.059C815.357 290.566 816.615 291.043 817.876 291.517C818.841 291.88 819.806 292.244 820.777 292.591C821.752 292.932 822.734 293.256 823.715 293.578C824.992 294 826.272 294.412 827.562 294.798C828.326 295.028 829.096 295.243 829.866 295.46C831.387 295.892 832.914 296.301 834.451 296.684C835.062 296.836 835.68 296.979 836.294 297.125C837.977 297.518 839.667 297.891 841.37 298.229C841.919 298.336 842.471 298.437 843.02 298.544C844.765 298.868 846.52 299.164 848.284 299.426C848.86 299.514 849.435 299.595 850.01 299.673C851.696 299.907 853.389 300.108 855.089 300.283C855.827 300.358 856.564 300.433 857.305 300.498C857.994 300.559 858.676 300.647 859.369 300.699C860.087 300.748 860.798 300.757 861.516 300.799C862.79 300.874 864.071 300.939 865.354 300.984C866.543 301.023 867.726 301.053 868.906 301.069C869.517 301.075 870.118 301.114 870.729 301.114C871.551 301.114 872.363 301.069 873.182 301.056C874.186 301.04 875.184 301.023 876.181 300.988C877.751 300.933 879.307 300.842 880.864 300.735C881.728 300.679 882.59 300.631 883.447 300.559C885.235 300.407 887.009 300.212 888.777 300.001C889.391 299.926 890.011 299.871 890.622 299.787C897.992 298.813 905.193 297.304 912.189 295.301C912.3 295.269 912.414 295.23 912.527 295.197C914.727 294.561 916.908 293.876 919.065 293.146C919.348 293.049 919.624 292.945 919.904 292.847C921.902 292.156 923.884 291.426 925.847 290.653C926.162 290.53 926.474 290.4 926.789 290.273C928.726 289.494 930.643 288.68 932.541 287.823C932.824 287.693 933.11 287.563 933.389 287.433C935.349 286.534 937.282 285.596 939.193 284.622C939.381 284.522 939.573 284.428 939.758 284.33C941.831 283.259 943.875 282.146 945.89 280.984C945.903 280.977 945.913 280.971 945.926 280.965C954.085 276.248 961.78 270.818 968.887 264.713C985.849 250.139 1008.62 244.91 1029.79 250.376C1033.35 251.308 1036.87 252.499 1040.29 254.031C1064.32 264.765 1079.4 288.543 1079.98 314.824C1080.09 320.047 1080.48 325.321 1081.14 330.641C1081.31 331.936 1081.6 333.186 1081.79 334.465C1082.02 335.928 1082.26 337.386 1082.53 338.84C1083.18 342.371 1083.96 345.854 1084.85 349.298C1084.94 349.652 1085.03 350.002 1085.12 350.356C1097.16 395.433 1129.93 432.325 1172.4 450.202C1172.61 450.29 1172.81 450.381 1173.01 450.465C1175.29 451.413 1177.58 452.303 1179.91 453.137C1181.88 453.848 1183.86 454.523 1185.87 455.152C1187.5 455.662 1189.14 456.142 1190.8 456.597C1193.53 457.35 1196.28 458.031 1199.08 458.632C1200.26 458.885 1201.45 459.109 1202.65 459.336C1205.93 459.956 1209.23 460.482 1212.58 460.884C1212.84 460.914 1213.09 460.978 1213.35 461.004C1214.13 461.092 1214.89 461.128 1215.66 461.202C1216.61 461.293 1217.54 461.413 1218.49 461.491C1219 461.534 1219.5 461.534 1220.01 461.569C1221.58 461.676 1223.13 461.751 1224.69 461.809C1226 461.861 1227.32 461.91 1228.63 461.93C1230.1 461.946 1231.55 461.933 1233.01 461.91C1234.38 461.891 1235.76 461.868 1237.13 461.809C1238.49 461.754 1239.84 461.66 1241.19 461.566C1242.63 461.465 1244.08 461.368 1245.51 461.228C1246.75 461.105 1247.97 460.949 1249.2 460.797C1250.72 460.608 1252.25 460.423 1253.76 460.19C1254.87 460.021 1255.96 459.816 1257.06 459.622C1258.67 459.339 1260.27 459.054 1261.86 458.716C1262.82 458.515 1263.77 458.281 1264.73 458.057C1266.43 457.665 1268.12 457.269 1269.79 456.817C1270.59 456.603 1271.39 456.36 1272.18 456.129C1273.98 455.613 1275.78 455.091 1277.56 454.51C1278.18 454.308 1278.78 454.084 1279.39 453.87C1281.32 453.211 1283.24 452.536 1285.14 451.803C1285.53 451.65 1285.92 451.481 1286.31 451.326C1288.4 450.491 1425 393.978 1370 246.978C1352.87 201.204 1270 132.978 1180 168.978Z" id="Fill-1" fill="url(#gradient_1)" fill-rule="evenodd" stroke="none" />
    </g>
  </g>
</svg>