<svg xmlns="http://www.w3.org/2000/svg" xmlns:xlink="http://www.w3.org/1999/xlink" viewBox="0 0 611.82 604.218">
  <defs>
    <linearGradient id="linear-gradient" x1="0.002" y1="0.5" x2="1" y2="0.5" gradientUnits="objectBoundingBox">
      <stop offset="0" stop-color="#f15a29"/>
      <stop offset="1" stop-color="#de2408"/>
    </linearGradient>
  </defs>
  <g id="Bitmap" transform="translate(0 0)">
    <rect id="Rectangle" width="274" height="438" rx="30" transform="translate(125.216 97.635)" fill="url(#linear-gradient)"/>
    <g id="Group_26" data-name="Group 26">
      <path id="Fill_24" data-name="Fill 24" d="M216.647,442.445c-1.532,45.215-35.551,81.922-79.41,81.922S61.518,492.849,60.9,447.617c-.52-38.264,13.487-51.519,33.431-79.024,29.812-39.777,133.134-96.145,168.422-169.838A140.022,140.022,0,0,0,276,139.113C276,62.274,214.4,0,138.393,0S.786,62.274.786,139.113C.786,200.807,48.577,252.3,83.536,281.5l44.208-37.247s-60.162-44.286-67.6-104.591c-5.562-44.905,35.546-81.913,79.415-81.913s79.4,36.667,79.4,81.913c0,27.7-25.94,59.288-33.712,66.973C160.651,244.257,90.733,278.486,25.6,364.063A139.615,139.615,0,0,0,0,444.883C0,521.717,61.626,584,137.634,584s137.6-62.283,137.6-139.117c0-62.929-33.386-103.972-82.221-145.249L148.3,335.868s69.917,59.912,68.345,106.578" transform="matrix(0.695, 0.719, -0.719, 0.695, 420.094, 0)" fill="#fff" opacity="0.121"/>
    </g>
  </g>
</svg>



